<svg id="PlayPause" xmlns="http://www.w3.org/2000/svg" width="110" height="41" viewBox="0 0 110 41">
  <g id="Rectangle_5" data-name="Rectangle 5" fill="#fff" stroke="#707070" stroke-width="2">
    <rect width="110" height="41" rx="20.5" stroke="none"/>
    <rect x="1" y="1" width="108" height="39" rx="19.5" fill="none"/>
  </g>
  <g id="Polygon_1" data-name="Polygon 1" transform="translate(54 7) rotate(90)" fill="#fff">
    <path d="M 26.32578086853027 25 L 1.674219965934753 25 L 14 2.109260082244873 L 14.00030136108398 2.109819889068604 L 26.32578086853027 25 Z" stroke="none"/>
    <path d="M 14 4.21851921081543 L 3.34843635559082 24 L 24.65156364440918 24 L 14 4.21851921081543 M 14 1.109260559082031 C 14.3458423614502 1.109260559082031 14.69168472290039 1.28455924987793 14.88047027587891 1.635160446166992 L 27.20624923706055 24.52589988708496 C 27.56498908996582 25.19212913513184 27.08246040344238 26 26.32578086853027 26 L 1.674219131469727 26 C 0.9175395965576172 26 0.4350109100341797 25.19212913513184 0.7937507629394531 24.52589988708496 L 13.11952972412109 1.635160446166992 C 13.30831527709961 1.28455924987793 13.6541576385498 1.109260559082031 14 1.109260559082031 Z" stroke="none" fill="#707070"/>
  </g>
  <g id="Rectangle_6" data-name="Rectangle 6" transform="translate(68 9)" fill="#fff" stroke="#707070" stroke-width="2">
    <rect width="6" height="24" rx="2" stroke="none"/>
    <rect x="1" y="1" width="4" height="22" rx="1" fill="none"/>
  </g>
  <g id="Rectangle_7" data-name="Rectangle 7" transform="translate(82 9)" fill="#fff" stroke="#707070" stroke-width="2">
    <rect width="6" height="24" rx="2" stroke="none"/>
    <rect x="1" y="1" width="4" height="22" rx="1" fill="none"/>
  </g>
</svg>
